<!DOCTYPE svg PUBLIC "-//W3C//DTD SVG 1.1//EN" "http://www.w3.org/Graphics/SVG/1.1/DTD/svg11.dtd">
<svg version="1.1" id="Layer_1" xmlns="http://www.w3.org/2000/svg" xmlns:xlink="http://www.w3.org/1999/xlink" x="0px" y="0px"
	 viewBox="0 0 175 175" enable-background="new 0 0 175 175" xml:space="preserve">
<path d="M94.37,173.317L49.813,63.013l7.888-3.282c5.746-2.318,10.18-6.667,12.562-12.279c2.382-5.611,2.434-11.822,0.146-17.489
	c-2.287-5.664-6.637-10.096-12.249-12.479s-11.822-2.437-17.488-0.151l-7.26,2.935L27.542,5.749l7.264-2.936
	c9.546-3.853,20.013-3.761,29.475,0.257c9.463,4.02,16.796,11.488,20.648,21.031c3.854,9.543,3.764,20.009-0.251,29.469
	c-3.087,7.271-8.212,13.285-14.75,17.428l33.093,81.925l36.89-14.909l5.867,14.518L94.37,173.317z"/>
</svg>
