<svg version="1.1" id="Layer_1" xmlns="http://www.w3.org/2000/svg" xmlns:xlink="http://www.w3.org/1999/xlink" x="0px" y="0px"
	 viewBox="0 0 108 72.6" style="enable-background:new 0 0 108 72.6;" xml:space="preserve">
<path d="M79.3,0c0,0.9,0,12.2,0,13.1c0.9,0,9.2,0,9.2,0L78.2,51.4c0,0-12.6-50.6-12.8-51.4c-0.7,0-12.6,0-13.3,0
	c-0.2,0.7-13.8,51.4-13.8,51.4l-9.5-38.3c0,0,8.7,0,9.6,0c0-0.9,0-12.2,0-13.1C37.5,0,0.9,0,0,0c0,0.9,0,12.2,0,13.1
	c0.9,0,8.5,0,8.5,0s14.7,58.8,14.9,59.5c0.7,0,19.9,0,20.6,0c0.2-0.7,9.9-37.5,9.9-37.5s9.2,36.7,9.4,37.5c0.7,0,19.9,0,20.6,0
	c0.2-0.7,15.7-59.5,15.7-59.5s7.6,0,8.4,0c0-0.9,0-12.2,0-13.1C107.1,0,80.2,0,79.3,0z"/>
</svg>