<?xml version="1.0" encoding="utf-8"?>
<svg version="1.1" id="Layer_1" xmlns="http://www.w3.org/2000/svg" xmlns:xlink="http://www.w3.org/1999/xlink" x="0px" y="0px"
viewBox="0 0 200 200" xml:space="preserve">
<path d="M108.872,199.915L57.49,72.711l9.096-3.786c6.626-2.673,11.739-7.688,14.486-14.16c2.746-6.471,2.806-13.634,0.167-20.168
	c-2.637-6.532-7.653-11.642-14.126-14.391c-6.472-2.749-13.634-2.811-20.167-0.175l-8.372,3.385L31.806,6.674l8.376-3.386
	C51.191-1.155,63.261-1.05,74.173,3.584c10.912,4.635,19.369,13.248,23.812,24.252c4.443,11.005,4.339,23.075-0.29,33.985
	c-3.56,8.385-9.47,15.32-17.01,20.097l38.162,94.476l42.541-17.193l6.768,16.742L108.872,199.915z"/>
</svg>
